<?xml version="1.0" encoding="UTF-8" standalone="no"?>
<!-- Created with Inkscape (http://www.inkscape.org/) -->

<svg
   xmlns:dc="http://purl.org/dc/elements/1.1/"
   xmlns:cc="http://creativecommons.org/ns#"
   xmlns:rdf="http://www.w3.org/1999/02/22-rdf-syntax-ns#"
   xmlns:svg="http://www.w3.org/2000/svg"
   xmlns="http://www.w3.org/2000/svg"
   xmlns:sodipodi="http://sodipodi.sourceforge.net/DTD/sodipodi-0.dtd"
   xmlns:inkscape="http://www.inkscape.org/namespaces/inkscape"
   width="1038.7549mm"
   height="1391.1637mm"
   viewBox="0 0 1038.7549 1391.1637"
   version="1.1"
   id="svg8"
   inkscape:version="0.92.4 (5da689c313, 2019-01-14)"
   sodipodi:docname="Hand-03-LIGHT LINES.svg">
  <defs
     id="defs2" />
  <sodipodi:namedview
     id="base"
     pagecolor="#ffffff"
     bordercolor="#666666"
     borderopacity="1.0"
     inkscape:pageopacity="0.0"
     inkscape:pageshadow="2"
     inkscape:zoom="0.12374369"
     inkscape:cx="197.13052"
     inkscape:cy="2248.4413"
     inkscape:document-units="mm"
     inkscape:current-layer="g892"
     showgrid="false"
     inkscape:window-width="1920"
     inkscape:window-height="1001"
     inkscape:window-x="-9"
     inkscape:window-y="-9"
     inkscape:window-maximized="1"
     showguides="false"
     fit-margin-top="0"
     fit-margin-left="0"
     fit-margin-right="0"
     fit-margin-bottom="0" />
  <metadata
     id="metadata5">
    <rdf:RDF>
      <cc:Work
         rdf:about="">
        <dc:format>image/svg+xml</dc:format>
        <dc:type
           rdf:resource="http://purl.org/dc/dcmitype/StillImage" />
        <dc:title></dc:title>
      </cc:Work>
    </rdf:RDF>
  </metadata>
  <g
     inkscape:label="Layer 1"
     inkscape:groupmode="layer"
     id="layer1"
     transform="translate(460.87525,424.66486)">
    <g
       id="g892">
      <path
         sodipodi:nodetypes="ccccc"
         inkscape:connector-curvature="0"
         id="path837"
         d="m 15.875,782.32142 c 0,0 9.071429,106.97837 7.559524,150.43451 30.434556,48.73206 321.814286,32.94879 342.980956,3.46665 -4.13087,-43.19922 -7.74992,-71.67125 -1.11404,-96.64565 C 373.99489,697.07991 27.970238,663.25892 15.875,782.32142 Z"
         style="fill:#ffe0bd;fill-opacity:1;stroke:#ffccaa;stroke-width:5;stroke-linecap:round;stroke-linejoin:round;stroke-miterlimit:4;stroke-dasharray:none;stroke-opacity:0.97911832" />
      <path
         sodipodi:nodetypes="csssssssssssssssssssssssssssssssssssssssssssssssssssaaaassc"
         inkscape:connector-curvature="0"
         id="path826"
         d="M 210.15476,776.83521 C 179.25274,753.80756 103.40879,786.94725 75.130993,792.00632 55.911551,795.44479 23.065568,790.04738 12.813202,778.67135 -4.2585187,759.72856 -15.936061,769.62687 -42.763125,738.52923 -93.554588,679.65232 -133.12491,652.22577 -194.03116,604.54988 c -44.80083,-35.06897 -59.4806,-114.11117 -85.1122,-139.66203 -31.76651,-31.66645 -67.372,-53.37838 -102.41215,-107.57091 -16.71899,-25.85734 -76.92475,-80.21249 -76.81959,-114.54905 0.0815,-26.60301 41.58,-53.682 114.16725,-19.25263 57.8607,27.44432 67.91413,31.11883 84.42187,46.88748 22.11031,21.12036 45.40791,52.43652 59.81466,77.11447 15.11401,25.88946 49.56427,74.39107 91.35705,77.38306 9.368901,0.67073 19.613924,-14.53515 34.663343,-21.71927 14.333689,-6.84246 16.60278,-37.96826 30.809826,-68.68729 7.197634,-15.563 -6.580503,-69.04394 -0.691102,-135.07069 4.382584,-49.13364 -28.51331,-97.71912 -40.624966,-207.110281 -6.341126,-57.272355 -7.124659,-112.904329 -16.036171,-172.121569 -3.80666,-25.29533 -1.49367,-55.04185 -4.02804,-89.3041 -2.39695,-32.40446 14.333056,-74.68189 52.992774,-77.4623 30.713878,-2.20894 46.3159959,27.81827 52.6088107,57.32212 4.6228615,21.67427 4.3944447,47.70162 10.1909713,72.38552 6.011887,25.601 7.011581,72.17667 10.347476,101.92362 5.183174,46.21955 20.943038,70.052304 29.448822,105.4965289 8.381621,34.9268281 0.624944,103.2731901 29.113382,166.3982011 1.966953,4.3584 28.168094,2.21654 28.597834,-2.93996 5.24688,-62.957182 -24.912252,-127.036818 -32.183044,-203.262405 -3.355374,-35.177102 0.803272,-49.31712 -0.192192,-84.664015 -1.014644,-36.02799 -3.686632,-65.07323 -5.779449,-97.28303 -2.308122,-35.52349 1.555036,-55.04746 0.933286,-83.00901 -0.981641,-44.14668 0.354656,-77.8545 30.492459,-98.84552 19.78182,-13.77807 51.85842,-11.7742 66.71589,4.96603 13.92489,15.68947 17.64411,38.25126 18.21093,70.02862 0.43319,24.28561 2.65455,56.78354 5.45748,78.33611 4.79539,36.87318 -0.6589,74.08658 2.67518,111.133 4.83198,53.690328 16.01015,67.344693 17.90458,101.34627 3.68777,66.188807 -7.62785,134.334629 3.87541,193.97085 2.38616,12.37059 27.53021,17.09731 28.66466,3.34088 3.82493,-46.38131 -0.2787,-84.023221 6.48128,-125.416228 5.99233,-36.692514 16.37917,-59.537619 18.05836,-102.585051 1.08293,-27.762011 -2.39781,-62.547081 1.45232,-90.116271 12.59465,-90.18508 -3.21001,-94.33621 9.69307,-136.63824 17.26013,-56.58631 94.13023,-49.91116 103.85849,1.57217 7.37837,39.04737 -2.55646,65.64211 4.20359,107.82626 3.62302,22.60841 -6.31913,71.5737 -7.39475,121.079754 -0.85228,39.226657 -0.71948,80.5182725 -6.29299,119.317948 -7.25447,50.501645 -38.38367,117.971978 -31.68322,149.744998 4.08432,19.36748 34.15881,53.43646 37.19631,46.28674 17.16461,-40.40245 17.2252,-79.84823 28.33057,-120.53855 6.708,-24.578284 21.83262,-43.999582 28.8579,-68.517044 7.5541,-26.363001 7.10167,-57.7916268 17.11245,-83.292045 19.92699,-50.759963 20.51374,-111.012981 51.76971,-129.774421 16.3057,-9.78752 39.32935,-10.48577 56.46659,8.15892 25.98535,28.2711 1.67635,117.493875 -5.6048,175.603945 -5.64895,45.083643 -18.5908,88.968445 -29.39965,133.100225 -10.27182,41.93913 -28.80768,82.17874 -33.67595,125.08213 -2.17113,19.13382 4.09184,38.57299 2.13815,57.73023 -13.06562,128.11738 -36.93478,265.33118 -91.9407,375.24642 -14.93575,29.84527 -5.42822,96.64625 -44.13927,128.85713 -21.5481,17.92985 -42.4546,-18.67382 -90.19244,-29.69728"
         style="fill:#ffe0bd;fill-opacity:1;stroke:#ffccaa;stroke-width:5;stroke-linecap:round;stroke-linejoin:round;stroke-miterlimit:4;stroke-dasharray:none;stroke-opacity:0.97911832" />
      <path
         sodipodi:nodetypes="csc"
         inkscape:connector-curvature="0"
         id="path839"
         d="m 114.90476,296.74058 c 67.35192,22.98518 148.09123,91.37428 225.25808,118.52338 45.84655,16.12989 101.86091,43.09848 144.62404,18.50968"
         style="fill:none;stroke:#ffccaa;stroke-width:5;stroke-linecap:round;stroke-linejoin:round;stroke-miterlimit:4;stroke-dasharray:none;stroke-opacity:0.97911832" />
      <path
         sodipodi:nodetypes="csc"
         inkscape:connector-curvature="0"
         id="path841"
         d="m 18.840477,325.94109 c 45.5145,14.57799 125.813633,116.62455 161.833723,208.39423 29.12116,74.19304 26.19241,171.05252 53.4539,233.05905"
         style="fill:none;stroke:#ffccaa;stroke-width:5;stroke-linecap:round;stroke-linejoin:round;stroke-miterlimit:4;stroke-dasharray:none;stroke-opacity:0.97911832" />
      <path
         sodipodi:nodetypes="cc"
         inkscape:connector-curvature="0"
         id="path843"
         d="m 18.840477,325.94109 c 96.242373,34.0081 112.559333,64.23679 199.951773,110.39478"
         style="fill:none;stroke:#ffccaa;stroke-width:5;stroke-linecap:round;stroke-linejoin:round;stroke-miterlimit:4;stroke-dasharray:none;stroke-opacity:0.97911832" />
      <path
         sodipodi:nodetypes="cc"
         inkscape:connector-curvature="0"
         id="path845"
         d="m -352.8162,395.12838 c 20.13477,14.13639 68.22105,-17.99215 103.90545,-56.44355"
         style="fill:none;stroke:#ffccaa;stroke-width:5;stroke-linecap:round;stroke-linejoin:round;stroke-miterlimit:4;stroke-dasharray:none;stroke-opacity:0.97911832" />
      <path
         sodipodi:nodetypes="cc"
         inkscape:connector-curvature="0"
         id="path847"
         d="m -73.951,403.181 c 24.225871,-15.05364 40.417437,-20.09469 61.616702,-40.49198"
         style="fill:none;stroke:#ffccaa;stroke-width:5;stroke-linecap:round;stroke-linejoin:round;stroke-miterlimit:4;stroke-dasharray:none;stroke-opacity:0.97911832" />
      <path
         sodipodi:nodetypes="cc"
         inkscape:connector-curvature="0"
         id="path849"
         d="M -33.033974,183.12744 C -1.6619499,174.05601 22.956407,154.2512 69.447479,158.78692"
         style="fill:none;stroke:#ffccaa;stroke-width:5;stroke-linecap:round;stroke-linejoin:round;stroke-miterlimit:4;stroke-dasharray:none;stroke-opacity:0.97911832" />
      <path
         sodipodi:nodetypes="cc"
         inkscape:connector-curvature="0"
         id="path851"
         d="M -71.207659,15.335907 C -52.308849,18.359716 30.560439,1.0710417 39.631868,-14.048006"
         style="fill:none;stroke:#ffccaa;stroke-width:5;stroke-linecap:round;stroke-linejoin:round;stroke-miterlimit:4;stroke-dasharray:none;stroke-opacity:0.97911832" />
      <path
         sodipodi:nodetypes="cc"
         inkscape:connector-curvature="0"
         id="path853"
         d="m -87.686656,-144.03271 c 16.630952,5.29166 86.0450503,-8.78977 96.6283836,-17.10524"
         style="fill:none;stroke:#ffccaa;stroke-width:5;stroke-linecap:round;stroke-linejoin:round;stroke-miterlimit:4;stroke-dasharray:none;stroke-opacity:0.97911832" />
      <path
         sodipodi:nodetypes="cc"
         inkscape:connector-curvature="0"
         id="path855"
         d="m 80.784857,-215.40154 c 18.142857,6.80357 90.504783,-2.06217 105.623833,-11.1336"
         style="fill:none;stroke:#ffccaa;stroke-width:5;stroke-linecap:round;stroke-linejoin:round;stroke-miterlimit:4;stroke-dasharray:none;stroke-opacity:0.97911832" />
      <path
         sodipodi:nodetypes="cc"
         inkscape:connector-curvature="0"
         id="path857"
         d="m 90.276858,-33.604537 c 34.017852,2.267857 91.131032,-5.765964 113.809602,-14.837392"
         style="fill:none;stroke:#ffccaa;stroke-width:5;stroke-linecap:round;stroke-linejoin:round;stroke-miterlimit:4;stroke-dasharray:none;stroke-opacity:0.97911832" />
      <path
         sodipodi:nodetypes="cc"
         inkscape:connector-curvature="0"
         id="path859"
         d="m 118.83997,154.56433 c 24.19047,3.77976 54.68416,-8.04495 90.59189,-5.02114"
         style="fill:none;stroke:#ffccaa;stroke-width:5;stroke-linecap:round;stroke-linejoin:round;stroke-miterlimit:4;stroke-dasharray:none;stroke-opacity:0.97911832" />
      <path
         sodipodi:nodetypes="cc"
         inkscape:connector-curvature="0"
         id="path861"
         d="m 252.2913,160.77312 c 17.66205,13.8934 48.72824,27.07807 82.96751,34.34021"
         style="fill:none;stroke:#ffccaa;stroke-width:5;stroke-linecap:round;stroke-linejoin:round;stroke-miterlimit:4;stroke-dasharray:none;stroke-opacity:0.97911832" />
      <path
         sodipodi:nodetypes="cc"
         inkscape:connector-curvature="0"
         id="path863"
         d="m 390.26724,247.24988 c 15.11904,20.03274 66.62743,47.27659 96.48755,48.41052"
         style="fill:none;stroke:#ffccaa;stroke-width:5;stroke-linecap:round;stroke-linejoin:round;stroke-miterlimit:4;stroke-dasharray:none;stroke-opacity:0.97911832" />
      <path
         sodipodi:nodetypes="cc"
         inkscape:connector-curvature="0"
         id="path865"
         d="m 259.78598,20.643309 c 6.949,9.621703 96.75156,25.123335 110.64958,18.174327"
         style="fill:none;stroke:#ffccaa;stroke-width:5;stroke-linecap:round;stroke-linejoin:round;stroke-miterlimit:4;stroke-dasharray:none;stroke-opacity:0.97911832" />
      <path
         sodipodi:nodetypes="cc"
         inkscape:connector-curvature="0"
         id="path867"
         d="m 277.62494,-148.30902 c 15.875,13.60714 89.03087,9.95708 101.88206,-1.38221"
         style="fill:none;stroke:#ffccaa;stroke-width:5;stroke-linecap:round;stroke-linejoin:round;stroke-miterlimit:4;stroke-dasharray:none;stroke-opacity:0.97911832" />
      <path
         sodipodi:nodetypes="cc"
         inkscape:connector-curvature="0"
         id="path869"
         d="m 455.42727,4.0725983 c 9.62171,9.0871637 79.11178,29.3996477 94.61341,23.5197177"
         style="fill:none;stroke:#ffccaa;stroke-width:5;stroke-linecap:round;stroke-linejoin:round;stroke-miterlimit:4;stroke-dasharray:none;stroke-opacity:0.97911832" />
      <path
         sodipodi:nodetypes="cc"
         inkscape:connector-curvature="0"
         id="path871"
         d="m 421.21678,107.77317 c 8.55262,15.50164 85.52623,52.91937 101.02786,48.64305"
         style="fill:none;stroke:#ffccaa;stroke-width:5;stroke-linecap:round;stroke-linejoin:round;stroke-miterlimit:4;stroke-dasharray:none;stroke-opacity:0.97911832" />
    </g>
  </g>
</svg>
