<svg xmlns="http://www.w3.org/2000/svg" version="1.1" xmlns:xlink="http://www.w3.org/1999/xlink" xmlns:svgjs="http://svgjs.dev/svgjs" width="1000" height="625" viewBox="0 0 1000 625"><g transform="matrix(1,0,0,1,0,0)"><svg viewBox="0 0 576 360" data-background-color="#ffffff" preserveAspectRatio="xMidYMid meet" height="625" width="1000" xmlns="http://www.w3.org/2000/svg" xmlns:xlink="http://www.w3.org/1999/xlink"><g id="tight-bounds" transform="matrix(1,0,0,1,0,0)"><svg viewBox="0 0 576 360" height="360" width="576"><g><svg></svg></g><g><svg viewBox="0 0 576 360" height="360" width="576"><g><path xmlns="http://www.w3.org/2000/svg" d="M132.115 90l155.885-90 155.885 90v180l-155.885 90-155.885-90zM133.914 268.962l154.086 88.961 154.086-88.961v-177.924l-154.086-88.961-154.086 88.961z" fill="#ba3b0a" fill-rule="nonzero" stroke="none" stroke-width="1" stroke-linecap="butt" stroke-linejoin="miter" stroke-miterlimit="10" stroke-dasharray="" stroke-dashoffset="0" font-family="none" font-weight="none" font-size="none" text-anchor="none" style="mix-blend-mode: normal" data-fill-palette-color="tertiary"></path></g><g transform="matrix(1,0,0,1,172.8,149.9212070938807)"><svg viewBox="0 0 230.4 60.15758581223863" height="60.15758581223863" width="230.4"><g><svg viewBox="0 0 308.164481807687 80.46194122669263" height="60.15758581223863" width="230.4"><g><svg viewBox="0 0 308.164481807687 80.46194122669263" height="80.46194122669263" width="308.164481807687"><g><svg viewBox="0 0 308.164481807687 80.46194122669263" height="80.46194122669263" width="308.164481807687"><g><svg viewBox="0 0 308.164481807687 57.68169999999999" height="57.68169999999999" width="308.164481807687"><g><svg><g></g><g></g></svg></g><g><svg><g><svg></svg></g><g></g></svg></g><g id="text-0"><svg viewBox="0 0 308.164481807687 57.68169999999999" height="57.68169999999999" width="308.164481807687"><g transform="matrix(1,0,0,1,0,15.50465905991232)"><svg width="230.4" viewBox="1.6500000953674316 -35 307.92999267578125 35.650001525878906" height="26.67238188017535" data-palette-color="#ba3b0a"><path d="M18.8-34.3Q23.95-34.3 28.6-32.5 33.25-30.7 36.23-26.85 39.2-23 39.2-17.15L39.2-17.15Q39.2-11.35 36.23-7.48 33.25-3.6 28.58-1.8 23.9 0 18.8 0L18.8 0 1.65 0 1.65-6.35 7.25-6.35 7.25-27.95 1.65-27.95 1.65-34.3 18.8-34.3ZM17.9-6.35Q23.15-6.35 26.95-8.6 30.75-10.85 30.75-17.15L30.75-17.15Q30.75-27.95 17.9-27.95L17.9-27.95 15.35-27.95 15.35-6.35 17.9-6.35ZM77.9-21.55L70.85-21.55 70.85-27.95 56-27.95 56-19.6 61.25-19.6 61.25-23.55 67.2-23.55 67.2-9.95 61.25-9.95 61.25-13.9 56-13.9 56-6.35 70.85-6.35 70.85-12.75 77.9-12.75 77.9 0 42.5 0 42.5-6.35 48.05-6.35 48.05-27.95 42.5-27.95 42.5-34.3 77.9-34.3 77.9-21.55ZM121.75-34.3L121.75-27.95 116.55-27.95 103.05 0.65 98.8 0.65 85.4-27.95 80.2-27.95 80.2-34.3 98.25-34.3 98.25-27.95 93.7-27.95 101.45-10 108.9-27.95 103.85-27.95 103.85-34.3 121.75-34.3ZM149.09-14.4L156.69-14.4 156.69 0 123.39 0 123.39-6.35 128.99-6.35 128.99-27.95 123.39-27.95 123.39-34.3 142.59-34.3 142.59-27.95 137.04-27.95 137.04-6.35 149.09-6.35 149.09-14.4ZM178.39 0.65Q173.09 0.65 168.79-1.73 164.49-4.1 162.06-8.18 159.64-12.25 159.64-17.15L159.64-17.15Q159.64-22.05 162.06-26.15 164.49-30.25 168.79-32.63 173.09-35 178.39-35L178.39-35Q183.64-35 187.92-32.63 192.19-30.25 194.62-26.15 197.04-22.05 197.04-17.15L197.04-17.15Q197.04-12.25 194.62-8.18 192.19-4.1 187.92-1.73 183.64 0.65 178.39 0.65L178.39 0.65ZM178.39-5.9Q181.49-5.9 183.81-7.43 186.14-8.95 187.37-11.53 188.59-14.1 188.59-17.15L188.59-17.15Q188.59-20.25 187.37-22.83 186.14-25.4 183.81-26.93 181.49-28.45 178.39-28.45L178.39-28.45Q175.19-28.45 172.87-26.9 170.54-25.35 169.31-22.78 168.09-20.2 168.09-17.15L168.09-17.15Q168.09-14.05 169.31-11.48 170.54-8.9 172.87-7.4 175.19-5.9 178.39-5.9L178.39-5.9ZM218.14-20.75Q224.74-18.85 228.39-16.2 232.04-13.55 232.04-9.15L232.04-9.15Q232.04-6.1 230.49-3.9 228.94-1.7 226.24-0.53 223.54 0.65 220.14 0.65L220.14 0.65Q216.94 0.65 213.99-0.6 211.04-1.85 208.14-4.15L208.14-4.15 208.14-0.05 201.09-0.05 201.09-12.55 206.09-12.8Q208.69-9.65 212.59-7.68 216.49-5.7 219.59-5.7L219.59-5.7Q221.44-5.7 222.51-6.35 223.59-7 223.59-8.3L223.59-8.3Q223.59-9.85 221.14-11.15 218.69-12.45 212.64-14.1L212.64-14.1Q206.64-15.75 203.89-18.43 201.14-21.1 201.14-25.15L201.14-25.15Q201.14-28.1 202.79-30.33 204.44-32.55 207.14-33.77 209.84-35 212.89-35L212.89-35Q219.04-35 223.19-31.15L223.19-31.15 223.19-34.3 230.24-34.3 230.24-22.15 225.49-21.9Q223.84-25.1 220.91-26.88 217.99-28.65 214.94-28.65L214.94-28.65Q212.54-28.65 211.06-27.8 209.59-26.95 209.59-25.5L209.59-25.5Q209.59-24.1 211.44-23.08 213.29-22.05 218.14-20.75L218.14-20.75ZM234.34-34.3L271.19-34.3 271.19-21.1 264.13-21.1 264.13-27.95 256.83-27.95 256.83-6.35 262.28-6.35 262.28 0 243.23 0 243.23-6.35 248.73-6.35 248.73-27.95 241.38-27.95 241.38-21.1 234.34-21.1 234.34-34.3ZM309.58-21.55L302.53-21.55 302.53-27.95 287.68-27.95 287.68-19.6 292.93-19.6 292.93-23.55 298.88-23.55 298.88-9.95 292.93-9.95 292.93-13.9 287.68-13.9 287.68-6.35 302.53-6.35 302.53-12.75 309.58-12.75 309.58 0 274.18 0 274.18-6.35 279.73-6.35 279.73-27.95 274.18-27.95 274.18-34.3 309.58-34.3 309.58-21.55Z" opacity="1" transform="matrix(1,0,0,1,0,0)" fill="#ba3b0a" class="undefined-text-0" data-fill-palette-color="primary"></path></svg></g><g><svg xmlns="http://www.w3.org/2000/svg" xmlns:xlink="http://www.w3.org/1999/xlink" version="1.0" x="244.0183" y="0" viewBox="20.343509674072266 22.5 60.13711929321289 54.07666015625" enable-background="new 0 0 100 100" xml:space="preserve" height="57.68169999999999" width="64.14618180768703" class="icon-s-0" data-fill-palette-color="accent" id="s-0"><g fill="#ba3b0a" data-fill-palette-color="accent"><g fill="#ba3b0a" data-fill-palette-color="accent"><path d="M80.281 44.81l-2.421-3.237-0.075-3.554 2.28-3.338c0.242-0.355 0.23-0.826-0.03-1.169l-1.897-2.498c-0.26-0.343-0.707-0.48-1.118-0.342l-3.825 1.301-3.404-1.023-2.471-3.202c-0.265-0.342-0.719-0.475-1.121-0.334l-2.963 1.033c-0.406 0.142-0.677 0.528-0.671 0.958l0.056 4.035-2.029 2.928-3.805 1.358c-0.406 0.145-0.673 0.533-0.664 0.963l0.067 3.138c0.01 0.43 0.293 0.806 0.705 0.933l3.858 1.196 2.153 2.838 0.116 4.034c0.013 0.43 0.299 0.804 0.711 0.928l3.004 0.906c0.096 0.029 0.193 0.042 0.289 0.043 0.319 0 0.626-0.153 0.818-0.424l2.332-3.305 3.357-1.167 3.876 1.137c0.411 0.121 0.856-0.035 1.103-0.389l1.79-2.578C80.548 45.625 80.539 45.154 80.281 44.81zM77.28 46.824l-3.492-1.024c-0.198-0.058-0.414-0.054-0.609 0.015l-3.963 1.378c-0.197 0.068-0.368 0.197-0.489 0.368L66.625 50.539l-1.624-0.49-0.105-3.633c-0.007-0.208-0.077-0.41-0.203-0.576l-2.541-3.349c-0.126-0.167-0.302-0.289-0.501-0.35l-3.476-1.078-0.036-1.696 3.427-1.224c0.197-0.07 0.367-0.201 0.487-0.372l2.394-3.454c0.118-0.171 0.181-0.375 0.178-0.584l-0.05-3.634 1.602-0.559 2.226 2.886c0.128 0.166 0.304 0.287 0.504 0.347l4.019 1.207c0.201 0.06 0.413 0.057 0.61-0.011l3.445-1.172 1.026 1.351-2.055 3.008c-0.117 0.172-0.178 0.376-0.174 0.585l0.089 4.195c0.005 0.209 0.074 0.411 0.199 0.578l2.182 2.916L77.28 46.824z" fill="#ba3b0a" data-fill-palette-color="accent"></path><path d="M68.837 36.07c-2.158 0.046-3.878 1.84-3.832 3.999 0.022 1.046 0.45 2.021 1.206 2.744 0.734 0.704 1.693 1.089 2.708 1.089 0.028 0 0.057 0 0.085 0 2.159-0.047 3.879-1.841 3.833-3.999-0.022-1.046-0.451-2.021-1.206-2.745C70.875 36.435 69.872 36.046 68.837 36.07zM68.961 41.902c-1.049 0.015-1.935-0.819-1.956-1.875-0.022-1.057 0.818-1.935 1.875-1.957 0.014 0 0.027 0 0.042-0.001 0.496 0 0.966 0.188 1.325 0.533 0.369 0.354 0.579 0.831 0.59 1.343C70.859 41.001 70.018 41.879 68.961 41.902z" fill="#ba3b0a" data-fill-palette-color="accent"></path><path d="M50.862 52.391c0.452 0.153 0.948-0.035 1.187-0.448l3.014-5.221c0.238-0.413 0.152-0.937-0.206-1.251l-3.531-3.105-0.204-3.989 3.485-3.064c0.358-0.314 0.444-0.838 0.206-1.251l-3.014-5.221c-0.238-0.413-0.736-0.6-1.187-0.447L46.188 29.891l-3.633-2.097-0.915-4.494C41.545 22.834 41.136 22.5 40.66 22.5h-6.029c-0.476 0-0.885 0.334-0.98 0.8l-0.915 4.494-3.632 2.097-4.425-1.497c-0.451-0.152-0.948 0.034-1.187 0.447L20.478 34.063c-0.238 0.413-0.152 0.937 0.206 1.25l3.508 3.084v4.192l-3.508 3.084c-0.358 0.314-0.444 0.838-0.206 1.251l3.014 5.222c0.238 0.413 0.734 0.6 1.187 0.447l4.425-1.497 3.63 2.096 0.916 4.581c0.094 0.467 0.504 0.804 0.981 0.804h6.029c0.477 0 0.887-0.336 0.981-0.804l0.917-4.586 3.883-2.291L50.862 52.391zM45.82 48.94l-4.663 2.751c-0.245 0.145-0.417 0.386-0.472 0.665l-0.844 4.221h-4.391l-0.844-4.221c-0.057-0.282-0.231-0.526-0.48-0.67l-4.414-2.548c-0.248-0.143-0.546-0.173-0.82-0.081l-4.078 1.379-2.194-3.802 3.233-2.842c0.216-0.19 0.34-0.463 0.339-0.75v-5.097c0-0.288-0.124-0.562-0.339-0.751l-3.233-2.841 2.194-3.802 4.078 1.379c0.273 0.091 0.571 0.061 0.82-0.081l4.414-2.548c0.248-0.144 0.423-0.386 0.479-0.667L35.447 24.5H39.844l0.842 4.134c0.057 0.28 0.231 0.523 0.479 0.667l4.414 2.548c0.248 0.143 0.548 0.173 0.82 0.081l4.078-1.379 2.194 3.802-3.233 2.841c-0.229 0.202-0.354 0.497-0.338 0.802l0.25 4.894c0.014 0.27 0.136 0.522 0.338 0.7l3.233 2.842-2.194 3.801-4.079-1.379C46.371 48.761 46.07 48.792 45.82 48.94z" fill="#ba3b0a" data-fill-palette-color="accent"></path><path d="M37.771 33.809c-3.711 0-6.729 3.019-6.73 6.73 0 3.71 3.019 6.729 6.73 6.729S44.5 44.249 44.5 40.539C44.5 36.828 41.481 33.809 37.771 33.809zM37.771 45.268c-2.607 0-4.729-2.122-4.73-4.729s2.122-4.73 4.73-4.73S42.5 37.931 42.5 40.539 40.378 45.268 37.771 45.268z" fill="#ba3b0a" data-fill-palette-color="accent"></path><path d="M67.62 65.322L67.5 62.979l2.191-1.926c0.358-0.314 0.444-0.838 0.206-1.251l-2.001-3.466c-0.238-0.413-0.736-0.6-1.186-0.447l-2.793 0.944L61.77 55.594l-0.578-2.834c-0.095-0.466-0.504-0.8-0.979-0.801h-4.002c-0.476 0-0.885 0.334-0.98 0.801L54.654 55.594l-2.148 1.239-2.793-0.944c-0.451-0.152-0.948 0.034-1.187 0.447l-2.001 3.466c-0.238 0.413-0.152 0.937 0.206 1.251l2.215 1.947v2.477l-2.215 1.947c-0.358 0.314-0.444 0.838-0.206 1.251l2.001 3.466c0.238 0.413 0.735 0.599 1.187 0.447l2.793-0.945 2.146 1.238 0.578 2.892c0.094 0.467 0.504 0.804 0.981 0.804h4.002c0.477 0 0.887-0.336 0.98-0.804l0.579-2.897 2.316-1.366 2.788 0.943c0.452 0.153 0.948-0.035 1.187-0.447l2-3.466c0.238-0.413 0.152-0.937-0.206-1.251L67.62 65.322zM66.74 70.296L64.295 69.469c-0.276-0.093-0.579-0.062-0.828 0.086l-3.095 1.825c-0.245 0.145-0.417 0.386-0.473 0.665l-0.505 2.532h-2.364l-0.506-2.532c-0.057-0.282-0.231-0.526-0.48-0.67l-2.93-1.69c-0.248-0.143-0.546-0.173-0.82-0.081l-2.445 0.827-1.181-2.046 1.938-1.704c0.216-0.189 0.34-0.463 0.34-0.751V62.547c0-0.288-0.124-0.562-0.34-0.751l-1.938-1.704 1.181-2.046 2.445 0.827c0.272 0.092 0.571 0.062 0.82-0.081l2.93-1.691c0.248-0.144 0.423-0.386 0.479-0.667l0.504-2.475h2.369l0.504 2.475c0.057 0.28 0.231 0.523 0.48 0.666l2.929 1.692c0.248 0.144 0.547 0.174 0.82 0.081l2.445-0.827 1.181 2.046-1.939 1.704c-0.229 0.202-0.354 0.497-0.338 0.802l0.166 3.248c0.014 0.269 0.136 0.522 0.338 0.7L67.921 68.25 66.74 70.296z" fill="#ba3b0a" data-fill-palette-color="accent"></path><path d="M58.294 60.25c-2.215 0-4.018 1.803-4.018 4.018s1.803 4.018 4.018 4.018c2.216 0 4.019-1.803 4.019-4.018S60.51 60.25 58.294 60.25zM58.294 66.286c-1.112 0-2.018-0.905-2.018-2.018S57.182 62.25 58.294 62.25c1.113 0 2.019 0.905 2.019 2.018S59.407 66.286 58.294 66.286z" fill="#ba3b0a" data-fill-palette-color="accent"></path></g></g></svg></g></svg></g></svg></g><g transform="matrix(1,0,0,1,66.67272262221827,63.97840922474427)"><svg viewBox="0 0 174.81903656325048 16.483532001948365" height="16.483532001948365" width="174.81903656325048"><g transform="matrix(1,0,0,1,0,0)"><svg width="174.81903656325048" viewBox="3.6500000953674316 -36.650001525878906 504.260009765625 47.55000305175781" height="16.483532001948365" data-palette-color="#ba3b0a"><path d="M18.95-19.4Q25.55-17.55 28.9-15.05 32.25-12.55 32.25-8.4L32.25-8.4Q32.25-5.7 30.78-3.63 29.3-1.55 26.7-0.45 24.1 0.65 20.85 0.65L20.85 0.65Q17.3 0.65 14.1-0.85 10.9-2.35 8.2-5.05L8.2-5.05 8.2-0.05 3.65-0.05 3.65-11.6 6.55-11.75Q9.2-7.9 13-5.7 16.8-3.5 20.55-3.5L20.55-3.5Q23.35-3.5 25.13-4.7 26.9-5.9 26.9-7.95L26.9-7.95Q26.9-10.2 24.4-11.83 21.9-13.45 15.9-15L15.9-15Q9.65-16.65 6.75-19.33 3.85-22 3.85-25.9L3.85-25.9Q3.85-28.6 5.33-30.68 6.8-32.75 9.3-33.88 11.8-35 14.75-35L14.75-35Q21.7-35 26-29.9L26-29.9 26-34.3 30.55-34.3 30.55-22.9 27.75-22.75Q25.65-26.75 22.6-28.8 19.55-30.85 15.9-30.85L15.9-30.85Q12.95-30.85 11.08-29.58 9.2-28.3 9.2-26.15L9.2-26.15Q9.2-23.95 11.48-22.38 13.75-20.8 18.95-19.4L18.95-19.4ZM49.7 0.7Q46.25 0.7 43.25-0.85 40.25-2.4 38.47-5.25 36.7-8.1 36.7-11.75L36.7-11.75Q36.7-15.45 38.47-18.28 40.25-21.1 43.25-22.65 46.25-24.2 49.7-24.2L49.7-24.2Q53.1-24.2 56.07-22.65 59.05-21.1 60.85-18.25 62.65-15.4 62.65-11.75L62.65-11.75Q62.65-8.1 60.9-5.25 59.15-2.4 56.17-0.85 53.2 0.7 49.7 0.7L49.7 0.7ZM49.7-3.25Q51.95-3.25 53.75-4.3 55.55-5.35 56.57-7.28 57.6-9.2 57.6-11.75L57.6-11.75Q57.6-14.3 56.57-16.23 55.55-18.15 53.75-19.2 51.95-20.25 49.7-20.25L49.7-20.25Q46.25-20.25 44.02-17.93 41.8-15.6 41.8-11.75L41.8-11.75Q41.8-7.9 44.02-5.58 46.25-3.25 49.7-3.25L49.7-3.25ZM81.4-32.5Q79.1-32.5 77.7-31.05 76.3-29.6 76.3-27.05L76.3-27.05 76.3-23.55 83.8-23.55 83.8-19.6 76.3-19.6 76.3-3.95 83.2-3.95 83.2 0 66.15 0 66.15-3.95 71.45-3.95 71.45-19.6 66.15-19.6 66.15-23.55 71.45-23.55 71.45-26.9Q71.45-31.55 74.02-34.1 76.6-36.65 80.9-36.65L80.9-36.65Q83.1-36.65 84.92-36.08 86.75-35.5 89.15-34.4L89.15-34.4 87.35-30.6Q85.8-31.5 84.37-32 82.95-32.5 81.4-32.5L81.4-32.5ZM105.89-5.35L107.59-1.65Q105.74-0.55 103.97 0.05 102.19 0.65 99.89 0.65L99.89 0.65Q96.04 0.65 93.77-1.78 91.49-4.2 91.49-8.7L91.49-8.7 91.49-19.6 86.24-19.6 86.24-23.55 91.49-23.55 91.49-30.1 96.39-30.1 96.39-23.55 104.19-23.55 104.19-19.6 96.39-19.6 96.39-8.65Q96.39-6.1 97.54-4.9 98.69-3.7 100.64-3.7L100.64-3.7Q102.04-3.7 103.29-4.13 104.54-4.55 105.89-5.35L105.89-5.35ZM149.84-23.55L149.84-19.6 146.29-19.6 138.54 0.65 136.09 0.65 128.44-15.75 120.84 0.65 118.34 0.65 110.69-19.6 107.04-19.6 107.04-23.55 119.84-23.55 119.84-19.95 115.49-19.95 120.29-6.2 127.59-22.9 130.29-22.9 137.49-6.4 142.14-19.95 137.79-19.95 137.79-23.55 149.84-23.55ZM177.69-4.15L178.69-0.6Q177.04 0.4 174.84 0.4L174.84 0.4Q172.99 0.4 171.71-0.68 170.44-1.75 169.94-3.75L169.94-3.75Q164.94 0.7 160.04 0.7L160.04 0.7Q156.59 0.7 154.19-1.25 151.79-3.2 151.79-6.7L151.79-6.7Q151.79-9.1 153.14-10.88 154.49-12.65 156.76-13.58 159.04-14.5 161.69-14.5L161.69-14.5Q163.94-14.5 165.84-14.08 167.74-13.65 169.74-12.85L169.74-12.85 169.74-15.05Q169.74-17.6 168.04-18.8 166.34-20 163.59-20L163.59-20Q159.69-20 154.19-17.85L154.19-17.85 153.19-21.65Q159.09-24.15 164.19-24.15L164.19-24.15Q169.04-24.15 171.71-21.78 174.39-19.4 174.39-14.85L174.39-14.85 174.39-6.2Q174.39-3.75 176.14-3.75L176.14-3.75Q176.89-3.75 177.69-4.15L177.69-4.15ZM156.64-6.95Q156.64-5.25 157.99-4.33 159.34-3.4 161.29-3.4L161.29-3.4Q162.99-3.4 165.19-4.3 167.39-5.2 169.74-6.95L169.74-6.95 169.74-9.6Q166.34-10.8 162.54-10.9L162.54-10.9Q160.09-10.9 158.36-9.88 156.64-8.85 156.64-6.95L156.64-6.95ZM202.29-24.15L204.39-24.15 204.39-14.15 200.04-14.15 200.04-19.3Q198.09-19.3 195.79-17.85 193.49-16.4 191.04-13.75L191.04-13.75 191.04-3.95 196.39-3.95 196.39 0 180.84 0 180.84-3.95 186.14-3.95 186.14-19.6 180.84-19.6 180.84-23.55 191.04-23.55 191.04-17.65Q193.69-20.7 196.56-22.43 199.44-24.15 202.29-24.15L202.29-24.15ZM230.08-6.7L232.18-3.5Q227.38 0.7 221.23 0.7L221.23 0.7Q217.88 0.7 214.88-0.7 211.88-2.1 210.03-4.8 208.18-7.5 208.18-11.2L208.18-11.2Q208.18-15.15 210.08-18.1 211.98-21.05 215.03-22.63 218.08-24.2 221.43-24.2L221.43-24.2Q224.38-24.2 226.71-23.25 229.03-22.3 230.36-20.6 231.68-18.9 231.68-16.7L231.68-16.7Q231.68-13.4 228.86-11.58 226.03-9.75 222.08-9.75L222.08-9.75Q219.53-9.75 217.33-10.28 215.13-10.8 212.88-11.8L212.88-11.8 212.88-11.35Q212.88-9 214.01-7.2 215.13-5.4 217.03-4.45 218.93-3.5 221.18-3.5L221.18-3.5Q226.28-3.5 230.08-6.7L230.08-6.7ZM221.78-20.3Q219.08-20.3 216.76-18.75 214.43-17.2 213.43-14.55L213.43-14.55Q217.23-13.2 221.03-13.2L221.03-13.2Q223.53-13.2 225.16-14.13 226.78-15.05 226.78-16.7L226.78-16.7Q226.78-18.3 225.38-19.3 223.98-20.3 221.78-20.3L221.78-20.3ZM267.43-34.3Q272.78-34.3 277.28-32.38 281.78-30.45 284.45-26.58 287.13-22.7 287.13-17.15L287.13-17.15Q287.13-11.6 284.45-7.73 281.78-3.85 277.28-1.93 272.78 0 267.43 0L267.43 0 250.63 0 250.63-4.15 257.08-4.15 257.08-30.15 250.63-30.15 250.63-34.3 267.43-34.3ZM266.93-4.15Q273.33-4.15 277.53-7.33 281.73-10.5 281.73-17.15L281.73-17.15Q281.73-23.85 277.53-27 273.33-30.15 266.93-30.15L266.93-30.15 262.23-30.15 262.23-4.15 266.93-4.15ZM313.63-6.7L315.73-3.5Q310.93 0.7 304.78 0.7L304.78 0.7Q301.43 0.7 298.43-0.7 295.43-2.1 293.58-4.8 291.73-7.5 291.73-11.2L291.73-11.2Q291.73-15.15 293.63-18.1 295.53-21.05 298.58-22.63 301.63-24.2 304.98-24.2L304.98-24.2Q307.93-24.2 310.25-23.25 312.58-22.3 313.9-20.6 315.23-18.9 315.23-16.7L315.23-16.7Q315.23-13.4 312.4-11.58 309.58-9.75 305.63-9.75L305.63-9.75Q303.08-9.75 300.88-10.28 298.68-10.8 296.43-11.8L296.43-11.8 296.43-11.35Q296.43-9 297.55-7.2 298.68-5.4 300.58-4.45 302.48-3.5 304.73-3.5L304.73-3.5Q309.83-3.5 313.63-6.7L313.63-6.7ZM305.33-20.3Q302.63-20.3 300.3-18.75 297.98-17.2 296.98-14.55L296.98-14.55Q300.78-13.2 304.58-13.2L304.58-13.2Q307.08-13.2 308.7-14.13 310.33-15.05 310.33-16.7L310.33-16.7Q310.33-18.3 308.93-19.3 307.53-20.3 305.33-20.3L305.33-20.3ZM347.77-23.55L347.77-19.6 343.87-19.6 333.42 0.65 330.92 0.65 320.27-19.6 316.67-19.6 316.67-23.55 329.42-23.55 329.42-19.95 325.47-19.95 332.67-5.45 339.72-19.95 335.67-19.95 335.67-23.55 347.77-23.55ZM371.07-6.7L373.17-3.5Q368.37 0.7 362.22 0.7L362.22 0.7Q358.87 0.7 355.87-0.7 352.87-2.1 351.02-4.8 349.17-7.5 349.17-11.2L349.17-11.2Q349.17-15.15 351.07-18.1 352.97-21.05 356.02-22.63 359.07-24.2 362.42-24.2L362.42-24.2Q365.37-24.2 367.7-23.25 370.02-22.3 371.35-20.6 372.67-18.9 372.67-16.7L372.67-16.7Q372.67-13.4 369.85-11.58 367.02-9.75 363.07-9.75L363.07-9.75Q360.52-9.75 358.32-10.28 356.12-10.8 353.87-11.8L353.87-11.8 353.87-11.35Q353.87-9 355-7.2 356.12-5.4 358.02-4.45 359.92-3.5 362.17-3.5L362.17-3.5Q367.27-3.5 371.07-6.7L371.07-6.7ZM362.77-20.3Q360.07-20.3 357.75-18.75 355.42-17.2 354.42-14.55L354.42-14.55Q358.22-13.2 362.02-13.2L362.02-13.2Q364.52-13.2 366.15-14.13 367.77-15.05 367.77-16.7L367.77-16.7Q367.77-18.3 366.37-19.3 364.97-20.3 362.77-20.3L362.77-20.3ZM385.87-3.95L391.32-3.95 391.32 0 375.72 0 375.72-3.95 380.97-3.95 380.97-30.35 375.72-30.35 375.72-34.3 385.87-34.3 385.87-3.95ZM406.92 0.7Q403.47 0.7 400.47-0.85 397.47-2.4 395.69-5.25 393.92-8.1 393.92-11.75L393.92-11.75Q393.92-15.45 395.69-18.28 397.47-21.1 400.47-22.65 403.47-24.2 406.92-24.2L406.92-24.2Q410.32-24.2 413.29-22.65 416.27-21.1 418.07-18.25 419.87-15.4 419.87-11.75L419.87-11.75Q419.87-8.1 418.12-5.25 416.37-2.4 413.39-0.85 410.42 0.7 406.92 0.7L406.92 0.7ZM406.92-3.25Q409.17-3.25 410.97-4.3 412.77-5.35 413.79-7.28 414.82-9.2 414.82-11.75L414.82-11.75Q414.82-14.3 413.79-16.23 412.77-18.15 410.97-19.2 409.17-20.25 406.92-20.25L406.92-20.25Q403.47-20.25 401.24-17.93 399.02-15.6 399.02-11.75L399.02-11.75Q399.02-7.9 401.24-5.58 403.47-3.25 406.92-3.25L406.92-3.25ZM442.01-24.2Q444.96-24.2 447.46-22.65 449.96-21.1 451.46-18.32 452.96-15.55 452.96-12L452.96-12Q452.96-8.35 451.34-5.45 449.71-2.55 446.91-0.93 444.11 0.7 440.71 0.7L440.71 0.7Q436.26 0.7 432.51-2.7L432.51-2.7 432.51 6.95 437.96 6.95 437.96 10.9 422.46 10.9 422.46 6.95 427.71 6.95 427.71-19.6 422.46-19.6 422.46-23.55 432.51-23.55 432.51-19Q434.46-21.4 436.96-22.8 439.46-24.2 442.01-24.2L442.01-24.2ZM439.66-3.5Q442.01-3.5 443.89-4.58 445.76-5.65 446.81-7.6 447.86-9.55 447.86-12.05L447.86-12.05Q447.86-15.6 445.84-17.82 443.81-20.05 440.66-20.05L440.66-20.05Q438.51-20.05 436.41-18.75 434.31-17.45 432.51-15.15L432.51-15.15 432.51-6.4Q436.11-3.5 439.66-3.5L439.66-3.5ZM478.91-6.7L481.01-3.5Q476.21 0.7 470.06 0.7L470.06 0.7Q466.71 0.7 463.71-0.7 460.71-2.1 458.86-4.8 457.01-7.5 457.01-11.2L457.01-11.2Q457.01-15.15 458.91-18.1 460.81-21.05 463.86-22.63 466.91-24.2 470.26-24.2L470.26-24.2Q473.21-24.2 475.54-23.25 477.86-22.3 479.19-20.6 480.51-18.9 480.51-16.7L480.51-16.7Q480.51-13.4 477.69-11.58 474.86-9.75 470.91-9.75L470.91-9.75Q468.36-9.75 466.16-10.28 463.96-10.8 461.71-11.8L461.71-11.8 461.71-11.35Q461.71-9 462.84-7.2 463.96-5.4 465.86-4.45 467.76-3.5 470.01-3.5L470.01-3.5Q475.11-3.5 478.91-6.7L478.91-6.7ZM470.61-20.3Q467.91-20.3 465.59-18.75 463.26-17.2 462.26-14.55L462.26-14.55Q466.06-13.2 469.86-13.2L469.86-13.2Q472.36-13.2 473.99-14.13 475.61-15.05 475.61-16.7L475.61-16.7Q475.61-18.3 474.21-19.3 472.81-20.3 470.61-20.3L470.61-20.3ZM505.81-24.15L507.91-24.15 507.91-14.15 503.56-14.15 503.56-19.3Q501.61-19.3 499.31-17.85 497.01-16.4 494.56-13.75L494.56-13.75 494.56-3.95 499.91-3.95 499.91 0 484.36 0 484.36-3.95 489.66-3.95 489.66-19.6 484.36-19.6 484.36-23.55 494.56-23.55 494.56-17.65Q497.21-20.7 500.08-22.43 502.96-24.15 505.81-24.15L505.81-24.15Z" opacity="1" transform="matrix(1,0,0,1,0,0)" fill="#ba3b0a" class="undefined-text-1" data-fill-palette-color="secondary" id="text-1"></path></svg></g></svg></g></svg></g></svg></g></svg></g></svg></g></svg></g><defs></defs></svg><rect width="576" height="360" fill="none" stroke="none" visibility="hidden"></rect></g></svg></g></svg>